<svg xmlns="http://www.w3.org/2000/svg" width="25" height="24" viewBox="0 0 25 24" fill="none">
  <path fill-rule="evenodd" clip-rule="evenodd" d="M16.5 3.24194H8.5C5.73858 3.24194 3.5 5.48052 3.5 8.24194V16.2419C3.5 19.0033 5.73858 21.2419 8.5 21.2419H16.5C19.2614 21.2419 21.5 19.0033 21.5 16.2419V8.24194C21.5 5.48052 19.2614 3.24194 16.5 3.24194ZM19.75 16.2419C19.7445 18.0345 18.2926 19.4864 16.5 19.4919H8.5C6.70735 19.4864 5.25549 18.0345 5.25 16.2419V8.24194C5.25549 6.44929 6.70735 4.99743 8.5 4.99194H16.5C18.2926 4.99743 19.7445 6.44929 19.75 8.24194V16.2419ZM17.25 8.49194C17.8023 8.49194 18.25 8.04422 18.25 7.49194C18.25 6.93966 17.8023 6.49194 17.25 6.49194C16.6977 6.49194 16.25 6.93966 16.25 7.49194C16.25 8.04422 16.6977 8.49194 17.25 8.49194ZM12.5 7.74194C10.0147 7.74194 8 9.75666 8 12.2419C8 14.7272 10.0147 16.7419 12.5 16.7419C14.9853 16.7419 17 14.7272 17 12.2419C17.0027 11.0476 16.5294 9.90151 15.6849 9.05702C14.8404 8.21253 13.6943 7.73928 12.5 7.74194ZM9.75 12.2419C9.75 13.7607 10.9812 14.9919 12.5 14.9919C14.0188 14.9919 15.25 13.7607 15.25 12.2419C15.25 10.7231 14.0188 9.49194 12.5 9.49194C10.9812 9.49194 9.75 10.7231 9.75 12.2419Z" fill="#0D0A00"/>
</svg>