<svg xmlns="http://www.w3.org/2000/svg" width="25" height="24" viewBox="0 0 25 24" fill="none">
  <path d="M22.093 7.20228C21.9791 6.77968 21.7565 6.39428 21.4474 6.08444C21.1382 5.77461 20.7533 5.55114 20.331 5.43627C18.765 5.00627 12.5 4.99928 12.5 4.99928C12.5 4.99928 6.23599 4.99227 4.66899 5.40327C4.24692 5.52342 3.86282 5.75005 3.55356 6.06141C3.2443 6.37277 3.02028 6.7584 2.90299 7.18128C2.48999 8.74728 2.48599 11.9953 2.48599 11.9953C2.48599 11.9953 2.48199 15.2593 2.89199 16.8093C3.12199 17.6663 3.79699 18.3433 4.65499 18.5743C6.23699 19.0043 12.485 19.0113 12.485 19.0113C12.485 19.0113 18.75 19.0183 20.316 18.6083C20.7385 18.4936 21.1237 18.2707 21.4336 17.9615C21.7436 17.6523 21.9674 17.2675 22.083 16.8453C22.497 15.2803 22.5 12.0333 22.5 12.0333C22.5 12.0333 22.52 8.76828 22.093 7.20228ZM10.496 15.0043L10.501 9.00428L15.708 12.0093L10.496 15.0043Z" fill="#0D0A00"/>
</svg>