<svg xmlns="http://www.w3.org/2000/svg" width="83" height="65" viewBox="0 0 83 65" fill="none">
  <path d="M41.0444 0.02817C40.1675 0.164545 39.5981 0.323648 38.909 0.647538C35.0026 2.44882 33.636 7.28443 36.0049 10.904C36.3693 11.4609 37.3658 12.4553 37.9353 12.836C40.4238 14.4952 43.6924 14.41 46.0726 12.6315C49.4665 10.0858 49.8651 5.19336 46.9211 2.14766C45.5715 0.744136 43.7436 -0.0229705 41.8132 -0.000241408C41.4715 0.00544086 41.1242 0.0168054 41.0444 0.02817Z" fill="#D50000"/>
  <path d="M22.2585 11.9553C22.0592 12.0007 21.6605 12.1485 21.3758 12.2905C19.7358 13.0974 17.8908 15.2055 17.4979 16.7284C17.384 17.1659 17.3897 17.9046 17.5036 18.2967C17.7029 18.9672 17.9705 19.399 18.9785 20.6775C19.8782 21.8197 20.2882 22.3936 20.6811 23.0868C23.8415 28.5759 24.7014 35.9629 22.9589 42.6111C22.3894 44.759 21.4271 47.1001 20.4362 48.7423C20.2768 49.0037 20.1458 49.2423 20.1458 49.2707C20.1458 49.2935 22.3211 49.3162 24.9804 49.3162H29.8207L30.2705 48.39C31.4493 45.9977 32.1497 43.5373 32.3889 40.9348C32.4629 40.1223 32.4629 37.8096 32.3889 37.0141C32.201 35.0423 31.734 32.4001 31.3012 30.8488C31.1019 30.1272 31.0962 29.9737 31.2614 29.8601C31.5575 29.6555 31.6486 29.7124 32.3661 30.5761C34.1314 32.7012 35.5094 34.082 37.0868 35.3094C38.5673 36.4629 39.7005 37.0652 40.828 37.2982C41.2893 37.4005 42.3883 37.4118 42.8211 37.3209C44.0397 37.0766 45.264 36.4118 46.8869 35.1105C48.3561 33.94 49.5975 32.6842 51.2204 30.7465C51.9436 29.8828 52.0575 29.7692 52.2055 29.7692C52.5358 29.7692 52.6839 30.0647 52.5415 30.434C52.2055 31.3261 51.5735 34.7696 51.3457 36.9573C51.2546 37.8323 51.2546 40.1734 51.3457 41.0201C51.6418 43.7873 52.3536 46.2364 53.5551 48.5946L53.9196 49.3162H58.7598C61.4192 49.3162 63.5944 49.2992 63.5944 49.2821C63.5944 49.2651 63.4521 49.0037 63.2755 48.7025C61.7779 46.1682 60.6618 42.9577 60.2062 39.8836C59.9955 38.4687 59.9386 37.7357 59.9101 36.1049C59.8874 34.7866 59.8987 34.1616 59.9728 33.349C60.286 29.8601 61.0376 27.1099 62.4555 24.229C63.1104 22.905 63.5717 22.1777 64.5283 20.9617C65.4736 19.7627 65.6729 19.4899 65.9292 19.0126C66.3221 18.2853 66.4303 17.4841 66.2367 16.734C66.0203 15.8874 65.2914 14.7453 64.3746 13.8134C63.5033 12.9326 62.6492 12.3473 61.8121 12.0575C61.4135 11.9212 61.254 11.8984 60.7472 11.8984C60.1949 11.8984 60.1208 11.9155 59.7621 12.0803C58.7598 12.5519 57.3761 13.8929 54.341 17.325C52.2967 19.632 51.7044 20.2741 50.6168 21.3594C47.9575 24.0017 45.7765 25.4222 43.5329 25.9564C40.5832 26.6667 37.5594 25.4847 34.0118 22.2288C33.0323 21.331 31.808 20.0411 30.0542 18.0637C27.7308 15.4442 27.281 14.9555 26.4097 14.0861C25.4815 13.1599 24.616 12.4212 24.206 12.1939C23.6251 11.8814 22.976 11.8018 22.2585 11.9553Z" fill="#D50000"/>
  <path d="M8.78542 25.4279C7.6807 25.587 6.94612 25.8086 6.19445 26.195C4.34945 27.1553 3.05681 28.8032 2.54431 30.8488C2.37348 31.5307 2.33362 32.9456 2.45889 33.6899C2.96 36.5595 5.15806 38.7983 8.10209 39.4404C8.55764 39.537 10.3229 39.537 10.7785 39.4404C12.259 39.1165 13.5232 38.4233 14.5368 37.3777C15.8465 36.0254 16.5128 34.3605 16.5128 32.4683C16.5128 31.2807 16.2793 30.3033 15.7668 29.2976C15.391 28.5589 15.0436 28.0815 14.4514 27.4906C13.4321 26.4678 12.1793 25.803 10.7842 25.5359C10.3229 25.445 9.11 25.3825 8.78542 25.4279Z" fill="#D50000"/>
  <path d="M73.3035 25.4734C71.1339 25.7745 69.2262 27.0701 68.1215 29.0021C66.8744 31.1841 66.9086 33.9002 68.2012 36.0935C69.0782 37.5709 70.5075 38.7017 72.1646 39.2188C72.9618 39.4745 73.2579 39.5143 74.3 39.5143C75.3876 39.5143 75.7748 39.4518 76.6917 39.1336C78.3886 38.5426 79.8805 37.1959 80.6778 35.5367C81.9476 32.8831 81.418 29.6328 79.3794 27.5701C77.7451 25.9109 75.5812 25.1665 73.3035 25.4734Z" fill="#D50000"/>
  <path d="M63.5944 64.8856H66.2082L66.2253 62.2547C66.2423 59.6352 66.2423 59.6295 66.379 59.334C66.8801 58.2203 68.5372 58.0726 69.2092 59.0897C69.4996 59.5216 69.5167 59.7148 69.5167 62.3968V64.8856H72.1361V62.1979C72.1361 58.9249 72.0905 58.5328 71.5894 57.6862C70.5929 55.9815 68.0133 55.6803 66.5442 57.1009L66.2139 57.4191L66.2025 55.4531L66.1854 53.4927L64.8928 53.4756L63.5944 53.4643V64.8856Z" fill="#D50000"/>
  <path d="M0.5 64.8856H7.1625V62.7832H3.17639V60.3966H6.70694L6.69556 59.3852L6.67847 58.3794L4.93028 58.3624L3.17639 58.351V56.1917H7.1625V54.0893H0.5V64.8856Z" fill="#D50000"/>
  <path d="M19.2347 64.8856H21.8542V61.6638C21.8542 59.8909 21.8769 58.4647 21.8997 58.4931C21.9282 58.5272 22.4862 59.9761 23.1354 61.7149L24.3199 64.8856H26.4496L28.8299 58.5044L28.8469 61.6922L28.8583 64.8856H31.4778V54.0893L29.9346 54.1007L28.3914 54.1177L26.9051 57.8226C26.0851 59.8568 25.3961 61.5047 25.379 61.4876C25.3619 61.4649 24.6957 59.8511 23.9042 57.8964C23.1126 55.9417 22.4407 54.2882 22.4065 54.2143L22.3496 54.0893H19.2347V64.8856Z" fill="#D50000"/>
  <path d="M13.358 56.277C12.669 56.4304 12.2021 56.6861 11.7351 57.1634L11.4903 57.4078V56.3054H8.87082V64.8856H11.4903V62.3968C11.4903 59.8284 11.5073 59.6068 11.7351 59.1693C11.8718 58.9022 12.2704 58.5897 12.595 58.4931C13.4435 58.243 14.2919 58.5897 14.6279 59.3284L14.7646 59.6295L14.7987 64.8856H17.4125V62.1638C17.4125 59.9761 17.3954 59.3454 17.3271 58.9477C17.0993 57.6578 16.2679 56.6634 15.1461 56.3509C14.6165 56.2031 13.8364 56.1747 13.358 56.277Z" fill="#D50000"/>
  <path d="M35.7771 56.2827C34.7749 56.527 33.8808 57.2657 33.4025 58.243C32.9925 59.0727 32.9299 59.3965 32.9299 60.5955C32.9299 61.4138 32.9526 61.6865 33.0324 61.9592C33.3114 62.8855 33.6189 63.448 34.1485 63.9765C35.4753 65.2947 37.6847 65.3402 38.9546 64.0787L39.3361 63.698V64.8856H41.9556V56.3054H39.3361V56.9134C39.3304 57.4703 39.3247 57.5157 39.245 57.4134C38.8407 56.8623 38.0549 56.3679 37.4057 56.2486C36.9786 56.169 36.1814 56.1861 35.7771 56.2827ZM38.1858 58.6351C38.5332 58.7829 38.9546 59.209 39.114 59.5727C39.3532 60.1068 39.3475 61.0671 39.1083 61.607C38.9546 61.9479 38.6015 62.3343 38.294 62.4877C37.326 62.9707 36.2212 62.5843 35.7543 61.5956C35.6176 61.3058 35.6062 61.2149 35.6062 60.5671C35.6062 59.8795 35.6119 59.8454 35.7885 59.5159C36.0219 59.0727 36.3294 58.7772 36.7508 58.601C37.0355 58.4817 37.1494 58.4647 37.4911 58.4874C37.7303 58.4987 38.015 58.5613 38.1858 58.6351Z" fill="#D50000"/>
  <path d="M48.2536 56.3054C47.6671 56.4531 47.1774 56.7202 46.8129 57.0839L46.5111 57.3793V56.3054H43.8347V64.8856H46.5054L46.5225 62.2263C46.5396 59.675 46.5453 59.5613 46.6592 59.317C46.8129 58.9874 47.0919 58.7033 47.4222 58.5556C47.8094 58.3737 48.5497 58.3851 48.9256 58.5783C49.2729 58.7545 49.5406 59.0613 49.6772 59.4477C49.7683 59.7148 49.7854 59.9818 49.8025 62.3116L49.8196 64.8856H52.4333V62.34C52.4333 60.9421 52.4049 59.567 52.3764 59.2886C52.3137 58.7545 52.16 58.1976 51.9721 57.8339C51.7956 57.4873 51.3286 56.9645 50.9926 56.7429C50.2637 56.2599 49.1419 56.0781 48.2536 56.3054Z" fill="#D50000"/>
  <path d="M57.0117 56.277C56.2144 56.4474 55.5026 56.8338 54.9446 57.3907C54.1417 58.1919 53.7431 59.2488 53.7431 60.5955C53.7431 63.2946 55.4685 64.9993 58.2018 64.9993C59.261 64.9993 60.4568 64.5106 61.1231 63.7946C61.5615 63.3344 61.9886 62.5445 62.1367 61.9138L62.1708 61.7604H59.3919L59.2211 62.0615C59.1243 62.2377 58.9478 62.4309 58.8054 62.5275C58.5947 62.6752 58.5036 62.6979 58.0936 62.7207C57.5242 62.7434 57.2167 62.6241 56.9035 62.2547C56.5447 61.8399 56.4536 61.5047 56.4536 60.5955C56.4479 59.9023 56.465 59.7602 56.5789 59.4818C56.9092 58.6635 57.6551 58.2601 58.4353 58.4874C58.8168 58.601 59.0844 58.817 59.2553 59.1693L59.3862 59.4306H60.7472C61.4932 59.4306 62.1196 59.4079 62.1367 59.3852C62.1822 59.3113 61.9829 58.7033 61.8064 58.351C61.4533 57.6464 60.9636 57.1236 60.2803 56.7145C59.9956 56.5384 59.3578 56.3224 58.9193 56.2543C58.4239 56.169 57.4331 56.1861 57.0117 56.277Z" fill="#D50000"/>
  <path d="M76.3785 56.2656C75.0232 56.6122 74.0267 57.6635 73.6053 59.1749C73.423 59.8454 73.423 61.2376 73.6053 61.9536C73.816 62.7832 74.1349 63.3571 74.6986 63.9196C75.0004 64.2265 75.3136 64.4765 75.5357 64.5901C76.8625 65.2891 78.5708 65.0618 79.5275 64.0674L79.8806 63.7037V64.8856H82.5V56.3054H79.8806V57.5157L79.7154 57.2884C79.4478 56.9191 78.9979 56.6009 78.4114 56.3793C78.0982 56.2599 77.9103 56.2315 77.3465 56.2145C76.9081 56.2031 76.5607 56.2202 76.3785 56.2656ZM78.4114 58.5272C79.0093 58.6522 79.4421 59.0329 79.704 59.6466C79.9546 60.2432 79.9204 61.124 79.6186 61.7149C79.089 62.7548 77.6768 63.0162 76.8055 62.232C76.35 61.8229 76.1222 61.2717 76.1222 60.5671C76.1222 59.5841 76.5949 58.8511 77.4262 58.5499C77.6825 58.4533 78.0242 58.4476 78.4114 58.5272Z" fill="#D50000"/>
</svg>